<svg width="30" height="30" viewBox="0 0 30 30" fill="none" xmlns="http://www.w3.org/2000/svg">
<path fill-rule="evenodd" clip-rule="evenodd" d="M3.75 5.625C3.75 4.58947 4.58947 3.75 5.625 3.75H24.375C25.4105 3.75 26.25 4.58947 26.25 5.625V24.375C26.25 25.4105 25.4105 26.25 24.375 26.25H5.625C4.58947 26.25 3.75 25.4105 3.75 24.375V5.625ZM24.375 5.625H5.625V24.375H24.375V5.625Z" fill="#424242"/>
<path fill-rule="evenodd" clip-rule="evenodd" d="M20.625 1.875C21.1428 1.875 21.5625 2.29473 21.5625 2.8125V6.5625C21.5625 7.08027 21.1428 7.5 20.625 7.5C20.1072 7.5 19.6875 7.08027 19.6875 6.5625V2.8125C19.6875 2.29473 20.1072 1.875 20.625 1.875Z" fill="#424242"/>
<path fill-rule="evenodd" clip-rule="evenodd" d="M9.375 1.875C9.89277 1.875 10.3125 2.29473 10.3125 2.8125V6.5625C10.3125 7.08027 9.89277 7.5 9.375 7.5C8.85723 7.5 8.4375 7.08027 8.4375 6.5625V2.8125C8.4375 2.29473 8.85723 1.875 9.375 1.875Z" fill="#424242"/>
<path fill-rule="evenodd" clip-rule="evenodd" d="M3.75 10.3125C3.75 9.79473 4.16973 9.375 4.6875 9.375H25.3125C25.8303 9.375 26.25 9.79473 26.25 10.3125C26.25 10.8303 25.8303 11.25 25.3125 11.25H4.6875C4.16973 11.25 3.75 10.8303 3.75 10.3125Z" fill="#424242"/>
<path fill-rule="evenodd" clip-rule="evenodd" d="M19.9011 14.3571C20.2562 14.734 20.2385 15.3273 19.8616 15.6823L14.389 20.8386C14.027 21.1796 13.4617 21.1787 13.1009 20.8364L10.136 18.0239C9.7604 17.6676 9.74476 17.0742 10.1011 16.6985C10.4574 16.3229 11.0508 16.3073 11.4265 16.6636L13.7483 18.8661L18.5759 14.3177C18.9527 13.9626 19.546 13.9803 19.9011 14.3571Z" fill="#424242"/>
</svg>
