<svg width="20" height="25" viewBox="0 0 20 25" fill="none" xmlns="http://www.w3.org/2000/svg">
<path fill-rule="evenodd" clip-rule="evenodd" d="M10 7.14296C8.49377 7.14296 7.27273 8.34222 7.27273 9.82158C7.27273 11.3009 8.49377 12.5002 10 12.5002C11.5062 12.5002 12.7273 11.3009 12.7273 9.82158C12.7273 8.34222 11.5062 7.14296 10 7.14296ZM5.45455 9.82158C5.45455 7.35598 7.48961 5.35722 10 5.35722C12.5104 5.35722 14.5455 7.35598 14.5455 9.82158C14.5455 12.2872 12.5104 14.2859 10 14.2859C7.48961 14.2859 5.45455 12.2872 5.45455 9.82158Z" fill="#424242"/>
<path fill-rule="evenodd" clip-rule="evenodd" d="M10 1.78574C7.83005 1.78574 5.74897 2.63237 4.21458 4.13938C2.68019 5.64639 1.81818 7.69034 1.81818 9.82158C1.81818 13.518 3.91986 16.8839 6.14055 19.3921C7.23979 20.6337 8.34136 21.6347 9.16832 22.3251C9.49536 22.5981 9.7784 22.8216 10 22.9914C10.2216 22.8216 10.5046 22.5981 10.8317 22.3251C11.6586 21.6347 12.7602 20.6337 13.8595 19.3921C16.0801 16.8839 18.1818 13.518 18.1818 9.82158C18.1818 7.69034 17.3198 5.64639 15.7854 4.13938C14.251 2.63237 12.17 1.78574 10 1.78574ZM10 24.1075C9.47867 24.839 9.47842 24.8388 9.47813 24.8386L9.47737 24.8381L9.47525 24.8366L9.46853 24.832L9.44541 24.8158C9.42577 24.802 9.39774 24.7822 9.3619 24.7565C9.29021 24.7051 9.1872 24.6301 9.05734 24.5327C8.7977 24.3378 8.43021 24.0525 7.99077 23.6857C7.11318 22.953 5.94203 21.8893 4.76854 20.5639C2.44378 17.9381 0 14.161 0 9.82158C0 7.21673 1.05357 4.71858 2.92893 2.87667C4.8043 1.03477 7.34784 0 10 0C12.6522 0 15.1957 1.03477 17.0711 2.87667C18.9464 4.71858 20 7.21673 20 9.82158C20 14.161 17.5562 17.9381 15.2315 20.5639C14.058 21.8893 12.8868 22.953 12.0092 23.6857C11.5698 24.0525 11.2023 24.3378 10.9427 24.5327C10.8128 24.6301 10.7098 24.7051 10.6381 24.7565C10.6023 24.7822 10.5742 24.802 10.5546 24.8158L10.5315 24.832L10.5248 24.8366L10.5226 24.8381L10.5219 24.8386C10.5216 24.8388 10.5213 24.839 10 24.1075ZM10 24.1075L10.5219 24.8386C10.2089 25.0538 9.79115 25.0538 9.47813 24.8386L10 24.1075Z" fill="#424242"/>
</svg>
