<svg width="63" height="63" viewBox="0 0 63 63" fill="none" xmlns="http://www.w3.org/2000/svg">
<path fill-rule="evenodd" clip-rule="evenodd" d="M7.875 11.8127C7.875 9.63806 9.63788 7.87518 11.8125 7.87518H19.6875C21.8621 7.87518 23.625 9.63806 23.625 11.8127V51.1877C23.625 53.3623 21.8621 55.1252 19.6875 55.1252H11.8125C9.63788 55.1252 7.875 53.3623 7.875 51.1877V11.8127ZM19.6875 11.8127H11.8125V51.1877H19.6875V11.8127Z" fill="black"/>
<path fill-rule="evenodd" clip-rule="evenodd" d="M7.875 19.6877C7.875 18.6004 8.75644 17.7189 9.84375 17.7189H21.6562C22.7436 17.7189 23.625 18.6004 23.625 19.6877C23.625 20.775 22.7436 21.6564 21.6562 21.6564H9.84375C8.75644 21.6564 7.875 20.775 7.875 19.6877Z" fill="black"/>
<path fill-rule="evenodd" clip-rule="evenodd" d="M19.6875 11.8127C19.6875 9.63806 21.4504 7.87518 23.625 7.87518H31.5C33.6746 7.87518 35.4375 9.63806 35.4375 11.8127V51.1877C35.4375 53.3623 33.6746 55.1252 31.5 55.1252H23.625C21.4504 55.1252 19.6875 53.3623 19.6875 51.1877V11.8127ZM31.5 11.8127H23.625V51.1877H31.5V11.8127Z" fill="black"/>
<path fill-rule="evenodd" clip-rule="evenodd" d="M19.6875 43.3127C19.6875 42.2254 20.5689 41.3439 21.6562 41.3439H33.4688C34.5561 41.3439 35.4375 42.2254 35.4375 43.3127C35.4375 44.4 34.5561 45.2814 33.4688 45.2814H21.6562C20.5689 45.2814 19.6875 44.4 19.6875 43.3127Z" fill="black"/>
<path fill-rule="evenodd" clip-rule="evenodd" d="M32.2522 14.1805C31.6868 12.0711 32.9384 9.90276 35.0478 9.33736L42.6866 7.28986C44.7959 6.72446 46.9643 7.9761 47.5297 10.0855L57.7672 48.2792C58.3326 50.3886 57.0809 52.557 54.9716 53.1224L47.3328 55.1699C45.2234 55.7353 43.0551 54.4836 42.4897 52.3742L32.2522 14.1805ZM43.7103 11.1092L36.0716 13.1567L46.3091 51.3505L53.9478 49.303L43.7103 11.1092Z" fill="black"/>
<path fill-rule="evenodd" clip-rule="evenodd" d="M55.4508 40.5117C55.7336 41.5616 55.1118 42.642 54.0619 42.9248L42.6432 46.001C41.5933 46.2838 40.5129 45.662 40.2301 44.6121C39.9473 43.5622 40.5691 42.4818 41.6189 42.199L53.0377 39.1228C54.0876 38.84 55.168 39.4618 55.4508 40.5117Z" fill="black"/>
<path fill-rule="evenodd" clip-rule="evenodd" d="M49.349 17.7028C49.6297 18.7533 49.0057 19.8324 47.9553 20.1131L36.5365 23.1647C35.4861 23.4454 34.4069 22.8214 34.1262 21.771C33.8455 20.7205 34.4695 19.6414 35.5199 19.3607L46.9387 16.3091C47.9891 16.0284 49.0683 16.6524 49.349 17.7028Z" fill="black"/>
</svg>
