<svg width="65" height="65" viewBox="0 0 65 65" fill="none" xmlns="http://www.w3.org/2000/svg">
<path fill-rule="evenodd" clip-rule="evenodd" d="M8.125 12.1875C8.125 9.94384 9.94384 8.125 12.1875 8.125H52.8125C55.0562 8.125 56.875 9.94384 56.875 12.1875V52.8125C56.875 55.0562 55.0562 56.875 52.8125 56.875H12.1875C9.94384 56.875 8.125 55.0562 8.125 52.8125V12.1875ZM52.8125 12.1875H12.1875V52.8125H52.8125V12.1875Z" fill="#945800"/>
<path fill-rule="evenodd" clip-rule="evenodd" d="M44.6875 4.0625C45.8093 4.0625 46.7188 4.97192 46.7188 6.09375V14.2188C46.7188 15.3406 45.8093 16.25 44.6875 16.25C43.5657 16.25 42.6562 15.3406 42.6562 14.2188V6.09375C42.6562 4.97192 43.5657 4.0625 44.6875 4.0625Z" fill="#945800"/>
<path fill-rule="evenodd" clip-rule="evenodd" d="M20.3125 4.0625C21.4343 4.0625 22.3438 4.97192 22.3438 6.09375V14.2188C22.3438 15.3406 21.4343 16.25 20.3125 16.25C19.1907 16.25 18.2812 15.3406 18.2812 14.2188V6.09375C18.2812 4.97192 19.1907 4.0625 20.3125 4.0625Z" fill="#945800"/>
<path fill-rule="evenodd" clip-rule="evenodd" d="M8.125 22.3438C8.125 21.2219 9.03442 20.3125 10.1562 20.3125H54.8438C55.9656 20.3125 56.875 21.2219 56.875 22.3438C56.875 23.4656 55.9656 24.375 54.8438 24.375H10.1562C9.03442 24.375 8.125 23.4656 8.125 22.3438Z" fill="#945800"/>
<path fill-rule="evenodd" clip-rule="evenodd" d="M21.3281 32.5C21.3281 31.3782 22.2375 30.4688 23.3594 30.4688H30.4688C31.2496 30.4688 31.9613 30.9163 32.2995 31.6201C32.6378 32.3238 32.5427 33.1592 32.0549 33.7689L29.8067 36.5792C30.4654 37.0208 31.0332 37.5879 31.4766 38.2501C32.0346 39.0835 32.3783 40.0416 32.4772 41.0396C32.5762 42.0376 32.4272 43.0445 32.0437 43.9712C31.6601 44.8978 31.0538 45.7155 30.2785 46.3516C29.5032 46.9877 28.5829 47.4227 27.5992 47.6178C26.6155 47.813 25.5988 47.7624 24.6394 47.4705C23.6799 47.1786 22.8073 46.6543 22.0991 45.9443C21.3068 45.1501 21.3083 43.864 22.1025 43.0717C22.8967 42.2794 24.1829 42.281 24.9752 43.0752C25.2112 43.3119 25.5021 43.4866 25.8219 43.5839C26.1417 43.6812 26.4806 43.6981 26.8085 43.633C27.1364 43.568 27.4432 43.423 27.7016 43.2109C27.9601 42.9989 28.1622 42.7263 28.29 42.4175C28.4179 42.1086 28.4675 41.7729 28.4345 41.4403C28.4016 41.1076 28.287 40.7882 28.101 40.5105C27.915 40.2327 27.6633 40.0051 27.3683 39.8479C27.0733 39.6907 26.744 39.6088 26.4097 39.6094C25.6283 39.6107 24.9153 39.1636 24.5762 38.4596C24.2371 37.7556 24.3319 36.9194 24.8201 36.3092L26.2425 34.5312H23.3594C22.2375 34.5312 21.3281 33.6218 21.3281 32.5Z" fill="#945800"/>
<path fill-rule="evenodd" clip-rule="evenodd" d="M41.5335 30.6832C42.2217 31.0273 42.6564 31.7306 42.6564 32.5V45.7031C42.6564 46.825 41.7469 47.7344 40.6251 47.7344C39.5033 47.7344 38.5939 46.825 38.5939 45.7031V36.5625L37.7814 37.1719C36.8839 37.845 35.6107 37.6631 34.9376 36.7656C34.2645 35.8682 34.4464 34.595 35.3439 33.9219L39.4064 30.875C40.0219 30.4134 40.8454 30.3391 41.5335 30.6832Z" fill="#945800"/>
</svg>
