<svg width="65" height="65" viewBox="0 0 65 65" fill="none" xmlns="http://www.w3.org/2000/svg">
<path fill-rule="evenodd" clip-rule="evenodd" d="M22.6849 9.02952C23.0616 8.46442 23.6958 8.125 24.375 8.125H40.625C41.3042 8.125 41.9384 8.46442 42.3151 9.02952L45.7746 14.2188H52.8125C54.4287 14.2188 55.9786 14.8608 57.1214 16.0036C58.2642 17.1464 58.9062 18.6963 58.9062 20.3125V48.75C58.9062 50.3662 58.2642 51.9161 57.1214 53.0589C55.9786 54.2017 54.4287 54.8438 52.8125 54.8438H12.1875C10.5713 54.8438 9.02137 54.2017 7.87857 53.0589C6.73577 51.9161 6.09375 50.3662 6.09375 48.75V20.3125C6.09375 18.6963 6.73577 17.1464 7.87857 16.0036C9.02137 14.8608 10.5713 14.2188 12.1875 14.2188H19.2254L22.6849 9.02952ZM25.4621 12.1875L22.0026 17.3767C21.6259 17.9418 20.9917 18.2812 20.3125 18.2812H12.1875C11.6488 18.2812 11.1321 18.4953 10.7512 18.8762C10.3703 19.2571 10.1562 19.7738 10.1562 20.3125V48.75C10.1562 49.2887 10.3703 49.8054 10.7512 50.1863C11.1321 50.5672 11.6488 50.7812 12.1875 50.7812H52.8125C53.3512 50.7812 53.8679 50.5672 54.2488 50.1863C54.6297 49.8054 54.8438 49.2887 54.8438 48.75V20.3125C54.8438 19.7738 54.6297 19.2571 54.2488 18.8762C53.8679 18.4953 53.3512 18.2812 52.8125 18.2812H44.6875C44.0083 18.2812 43.3741 17.9418 42.9974 17.3767L39.5379 12.1875H25.4621Z" fill="#945800"/>
<path fill-rule="evenodd" clip-rule="evenodd" d="M32.5 26.4062C28.5736 26.4062 25.3906 29.5892 25.3906 33.5156C25.3906 37.442 28.5736 40.625 32.5 40.625C36.4264 40.625 39.6094 37.442 39.6094 33.5156C39.6094 29.5892 36.4264 26.4062 32.5 26.4062ZM21.3281 33.5156C21.3281 27.3456 26.3299 22.3438 32.5 22.3438C38.6701 22.3438 43.6719 27.3456 43.6719 33.5156C43.6719 39.6857 38.6701 44.6875 32.5 44.6875C26.3299 44.6875 21.3281 39.6857 21.3281 33.5156Z" fill="#945800"/>
</svg>
