<svg width="65" height="65" viewBox="0 0 65 65" fill="none" xmlns="http://www.w3.org/2000/svg">
<path fill-rule="evenodd" clip-rule="evenodd" d="M7.28363 19.4711C8.04549 18.7093 9.07881 18.2812 10.1562 18.2812H21.6666C22.5395 18.2848 23.3885 18.5678 24.089 19.0888L24.0938 19.0923L31.1476 24.37C31.1478 24.3701 31.1474 24.3699 31.1476 24.37C31.1516 24.3729 31.1569 24.3748 31.1618 24.375H48.75C49.8274 24.375 50.8608 24.803 51.6226 25.5649C52.3845 26.3267 52.8125 27.3601 52.8125 28.4375V51.0098C52.8125 52.0266 52.4086 53.0018 51.6896 53.7208C50.9705 54.4398 49.9953 54.8438 48.9785 54.8438H10.1562C9.07881 54.8438 8.0455 54.4157 7.28363 53.6539C6.52176 52.892 6.09375 51.8587 6.09375 50.7812V22.3438C6.09375 21.2663 6.52176 20.233 7.28363 19.4711ZM21.6507 22.3438H10.1563L10.1562 50.7812H48.75V28.4375H31.1459C30.273 28.4339 29.424 28.1509 28.7235 27.63L28.7187 27.6264L21.6649 22.3487C21.6647 22.3486 21.6651 22.3489 21.6649 22.3487C21.6609 22.3459 21.6556 22.3439 21.6507 22.3438Z" fill="black"/>
<path fill-rule="evenodd" clip-rule="evenodd" d="M7.28363 19.4711C8.04549 18.7093 9.07881 18.2812 10.1562 18.2812H21.6666C22.5395 18.2848 23.3885 18.5678 24.089 19.0888L24.0938 19.0923L31.1476 24.37C31.1478 24.3701 31.1474 24.3699 31.1476 24.37C31.1516 24.3729 31.1569 24.3748 31.1618 24.375H48.75C49.8274 24.375 50.8608 24.803 51.6226 25.5649C52.3845 26.3267 52.8125 27.3601 52.8125 28.4375V51.0098C52.8125 52.0266 52.4086 53.0018 51.6896 53.7208C50.9705 54.4398 49.9953 54.8438 48.9785 54.8438H10.1562C9.07881 54.8438 8.0455 54.4157 7.28363 53.6539C6.52176 52.892 6.09375 51.8587 6.09375 50.7812V22.3438C6.09375 21.2663 6.52176 20.233 7.28363 19.4711ZM21.6507 22.3438H10.1563L10.1562 50.7812H48.75V28.4375H31.1459C30.273 28.4339 29.424 28.1509 28.7235 27.63L28.7187 27.6264L21.6649 22.3487C21.6647 22.3486 21.6651 22.3489 21.6649 22.3487C21.6609 22.3459 21.6556 22.3439 21.6507 22.3438Z" fill="black"/>
<path fill-rule="evenodd" clip-rule="evenodd" d="M15.4086 11.3461C16.1705 10.5843 17.2038 10.1562 18.2812 10.1562H29.7916C30.6645 10.1598 31.5135 10.4428 32.214 10.9638L32.2188 10.9673L39.2726 16.245C39.2728 16.2451 39.2724 16.2449 39.2726 16.245C39.2766 16.2479 39.2819 16.2498 39.2868 16.25H56.875C57.9524 16.25 58.9858 16.678 59.7476 17.4399C60.5095 18.2017 60.9375 19.2351 60.9375 20.3125V42.8848C60.9375 43.9016 60.5336 44.8768 59.8146 45.5958C59.0955 46.3148 58.1203 46.7188 57.1035 46.7188H50.7812C49.6594 46.7188 48.75 45.8093 48.75 44.6875C48.75 43.5657 49.6594 42.6562 50.7812 42.6562H56.875V20.3125H39.2709C38.398 20.3089 37.549 20.0259 36.8485 19.505L36.8437 19.5014L29.7899 14.2237C29.7897 14.2236 29.7901 14.2239 29.7899 14.2237C29.7859 14.2209 29.7806 14.2189 29.7757 14.2188L18.2812 14.2188V20.3125C18.2812 21.4343 17.3718 22.3438 16.25 22.3438C15.1282 22.3438 14.2188 21.4343 14.2188 20.3125V14.2188C14.2188 13.1413 14.6468 12.108 15.4086 11.3461Z" fill="black"/>
</svg>
