<svg width="65" height="65" viewBox="0 0 65 65" fill="none" xmlns="http://www.w3.org/2000/svg">
<path fill-rule="evenodd" clip-rule="evenodd" d="M6.09375 14.2188C6.09375 11.9751 7.91259 10.1562 10.1562 10.1562H54.8438C57.0874 10.1562 58.9062 11.9751 58.9062 14.2188V50.7812C58.9062 53.0249 57.0874 54.8438 54.8438 54.8438H10.1562C7.91259 54.8438 6.09375 53.0249 6.09375 50.7812V14.2188ZM54.8438 14.2188H10.1562V50.7812H54.8438V14.2188Z" fill="#44403A"/>
<path fill-rule="evenodd" clip-rule="evenodd" d="M20.7747 27.5628C21.2717 27.3547 21.805 27.2476 22.3438 27.2476C22.8825 27.2476 23.4158 27.3547 23.9128 27.5628C24.4069 27.7697 24.8552 28.0722 25.2318 28.453L36.5625 39.7837L36.5734 39.7727L41.7996 34.5466C42.1762 34.1659 42.6245 33.8634 43.1185 33.6565C43.6154 33.4485 44.1488 33.3413 44.6875 33.3413C45.2262 33.3413 45.7596 33.4485 46.2565 33.6565C46.7505 33.8634 47.1988 34.1659 47.5754 34.5466L58.3113 45.2825C59.1046 46.0757 59.1046 47.3618 58.3113 48.1551C57.5181 48.9483 56.2319 48.9483 55.4387 48.1551L44.6875 37.4039L44.6766 37.4149L39.457 42.6343L39.4506 42.6408C39.0739 43.0216 38.6256 43.3241 38.1315 43.531C37.6346 43.7391 37.1012 43.8462 36.5625 43.8462C36.0238 43.8462 35.4904 43.7391 34.9935 43.531C34.4994 43.3241 34.0511 43.0216 33.6744 42.6408L22.3437 31.3101L22.3328 31.3211L9.56131 44.0926C8.76806 44.8858 7.48194 44.8858 6.68869 44.0926C5.89544 43.2993 5.89544 42.0132 6.68869 41.22L19.4556 28.4531C19.8323 28.0723 20.2806 27.7697 20.7747 27.5628Z" fill="#44403A"/>
<path d="M39.6094 28.4375C41.2921 28.4375 42.6562 27.0734 42.6562 25.3906C42.6562 23.7079 41.2921 22.3438 39.6094 22.3438C37.9266 22.3438 36.5625 23.7079 36.5625 25.3906C36.5625 27.0734 37.9266 28.4375 39.6094 28.4375Z" fill="#44403A"/>
</svg>
