<svg width="18" height="18" viewBox="0 0 18 18" fill="none" xmlns="http://www.w3.org/2000/svg">
<path fill-rule="evenodd" clip-rule="evenodd" d="M1.6875 3.9375C1.6875 3.31618 2.19118 2.8125 2.8125 2.8125H15.1875C15.8088 2.8125 16.3125 3.31618 16.3125 3.9375V14.0625C16.3125 14.6838 15.8088 15.1875 15.1875 15.1875H2.8125C2.19118 15.1875 1.6875 14.6838 1.6875 14.0625V3.9375ZM15.1875 3.9375H2.8125V14.0625H15.1875V3.9375Z" fill="#424242"/>
<path fill-rule="evenodd" clip-rule="evenodd" d="M5.75301 7.63277C5.89062 7.57515 6.03831 7.54548 6.1875 7.54548C6.33669 7.54548 6.48438 7.57515 6.62199 7.63277C6.75883 7.69006 6.88297 7.77385 6.98728 7.87929L10.125 11.017L10.128 11.014L11.5753 9.56674C11.6796 9.46132 11.8037 9.37755 11.9405 9.32027C12.0781 9.26265 12.2258 9.23298 12.375 9.23298C12.5242 9.23298 12.6719 9.26265 12.8095 9.32027C12.9463 9.37755 13.0704 9.46132 13.1747 9.56674L16.1477 12.5398C16.3674 12.7594 16.3674 13.1156 16.1477 13.3353C15.9281 13.5549 15.5719 13.5549 15.3523 13.3353L12.375 10.358L12.372 10.361L10.9266 11.8064L10.9248 11.8082C10.8205 11.9137 10.6963 11.9975 10.5595 12.0547C10.4219 12.1124 10.2742 12.142 10.125 12.142C9.97581 12.142 9.82811 12.1124 9.69051 12.0547C9.55367 11.9975 9.42953 11.9137 9.32521 11.8082L6.18749 8.67049L6.18448 8.67355L2.64775 12.2103C2.42808 12.4299 2.07192 12.4299 1.85225 12.2103C1.63258 11.9906 1.63258 11.6344 1.85225 11.4148L5.38769 7.87932C5.49201 7.77386 5.61616 7.69007 5.75301 7.63277Z" fill="#424242"/>
<path d="M10.9688 7.875C11.4347 7.875 11.8125 7.49724 11.8125 7.03125C11.8125 6.56526 11.4347 6.1875 10.9688 6.1875C10.5028 6.1875 10.125 6.56526 10.125 7.03125C10.125 7.49724 10.5028 7.875 10.9688 7.875Z" fill="#424242"/>
</svg>
