<svg width="45" height="57" viewBox="0 0 45 57" fill="none" xmlns="http://www.w3.org/2000/svg">
<path fill-rule="evenodd" clip-rule="evenodd" d="M2.1875 54.9062C2.1875 53.7844 3.09692 52.875 4.21875 52.875H40.7812C41.9031 52.875 42.8125 53.7844 42.8125 54.9062C42.8125 56.0281 41.9031 56.9375 40.7812 56.9375H4.21875C3.09692 56.9375 2.1875 56.0281 2.1875 54.9062Z" fill="#302615"/>
<path fill-rule="evenodd" clip-rule="evenodd" d="M22.5 16.3125C19.1345 16.3125 16.4062 19.0408 16.4062 22.4062C16.4062 25.7717 19.1345 28.5 22.5 28.5C25.8655 28.5 28.5938 25.7717 28.5938 22.4062C28.5938 19.0408 25.8655 16.3125 22.5 16.3125ZM12.3438 22.4062C12.3438 16.7971 16.8909 12.25 22.5 12.25C28.1091 12.25 32.6562 16.7971 32.6562 22.4062C32.6562 28.0154 28.1091 32.5625 22.5 32.5625C16.8909 32.5625 12.3438 28.0154 12.3438 22.4062Z" fill="#302615"/>
<path fill-rule="evenodd" clip-rule="evenodd" d="M22.5 4.125C17.6515 4.125 13.0016 6.05105 9.5732 9.47945C6.1448 12.9079 4.21875 17.5578 4.21875 22.4062C4.21875 30.8155 8.91469 38.4727 13.8765 44.1789C16.3327 47.0034 18.794 49.2807 20.6417 50.8512C21.3724 51.4724 22.0049 51.981 22.5 52.3672C22.9951 51.981 23.6276 51.4724 24.3583 50.8512C26.206 49.2807 28.6673 47.0034 31.1235 44.1789C36.0853 38.4727 40.7812 30.8155 40.7812 22.4062C40.7812 17.5578 38.8552 12.9079 35.4268 9.47945C31.9984 6.05105 27.3485 4.125 22.5 4.125ZM22.5 54.9062C21.3352 56.5703 21.3346 56.5699 21.3339 56.5695L21.3323 56.5683L21.3275 56.5649L21.3125 56.5544L21.2608 56.5176C21.2169 56.4863 21.1543 56.4412 21.0742 56.3827C20.9141 56.2658 20.6839 56.0952 20.3937 55.8735C19.8136 55.4301 18.9925 54.7812 18.0106 53.9466C16.0498 52.2799 13.433 49.8599 10.811 46.8446C5.61656 40.871 0.15625 32.2782 0.15625 22.4062C0.15625 16.4803 2.51032 10.7971 6.70058 6.60683C10.8908 2.41657 16.5741 0.0625 22.5 0.0625C28.4259 0.0625 34.1092 2.41657 38.2994 6.60683C42.4897 10.7971 44.8438 16.4803 44.8438 22.4062C44.8438 32.2782 39.3834 40.871 34.189 46.8446C31.567 49.8599 28.9502 52.2799 26.9894 53.9466C26.0075 54.7812 25.1864 55.4301 24.6063 55.8735C24.3161 56.0952 24.0859 56.2658 23.9258 56.3827C23.8457 56.4412 23.7831 56.4863 23.7392 56.5176L23.6875 56.5544L23.6725 56.5649L23.6677 56.5683L23.6661 56.5695C23.6654 56.5699 23.6648 56.5703 22.5 54.9062ZM22.5 54.9062L23.6661 56.5695C22.9667 57.059 22.0333 57.059 21.3339 56.5695L22.5 54.9062Z" fill="#302615"/>
</svg>
