<svg width="18" height="19" viewBox="0 0 18 19" fill="none" xmlns="http://www.w3.org/2000/svg">
<path fill-rule="evenodd" clip-rule="evenodd" d="M9 5.93103C8.06802 5.93103 7.3125 6.68655 7.3125 7.61853C7.3125 8.55051 8.06802 9.30603 9 9.30603C9.93198 9.30603 10.6875 8.55051 10.6875 7.61853C10.6875 6.68655 9.93198 5.93103 9 5.93103ZM6.1875 7.61853C6.1875 6.06523 7.4467 4.80603 9 4.80603C10.5533 4.80603 11.8125 6.06523 11.8125 7.61853C11.8125 9.17183 10.5533 10.431 9 10.431C7.4467 10.431 6.1875 9.17183 6.1875 7.61853Z" fill="#424242"/>
<path fill-rule="evenodd" clip-rule="evenodd" d="M9 2.55603C7.65734 2.55603 6.36967 3.0894 5.42027 4.0388C4.47087 4.9882 3.9375 6.27587 3.9375 7.61853C3.9375 9.94725 5.23791 12.0677 6.61197 13.6479C7.29212 14.43 7.97372 15.0607 8.4854 15.4956C8.68775 15.6676 8.86288 15.8085 9 15.9154C9.13711 15.8085 9.31225 15.6676 9.5146 15.4956C10.0263 15.0607 10.7079 14.43 11.388 13.6479C12.7621 12.0677 14.0625 9.94725 14.0625 7.61853C14.0625 6.27587 13.5291 4.9882 12.5797 4.0388C11.6303 3.0894 10.3427 2.55603 9 2.55603ZM9 16.6185C8.67743 17.0793 8.67727 17.0792 8.67709 17.0791L8.67663 17.0788L8.67531 17.0779L8.67115 17.0749L8.65685 17.0648C8.64469 17.0561 8.62735 17.0436 8.60517 17.0274C8.56082 16.995 8.49708 16.9478 8.41673 16.8864C8.25608 16.7636 8.02869 16.5839 7.75679 16.3528C7.21378 15.8912 6.48913 15.2211 5.76303 14.3861C4.32459 12.7319 2.8125 10.3523 2.8125 7.61853C2.8125 5.9775 3.4644 4.40369 4.62478 3.24331C5.78516 2.08293 7.35897 1.43103 9 1.43103C10.641 1.43103 12.2148 2.08293 13.3752 3.24331C14.5356 4.40369 15.1875 5.9775 15.1875 7.61853C15.1875 10.3523 13.6754 12.7319 12.237 14.3861C11.5109 15.2211 10.7862 15.8912 10.2432 16.3528C9.97131 16.5839 9.74392 16.7636 9.58327 16.8864C9.50292 16.9478 9.43918 16.995 9.39483 17.0274C9.37265 17.0436 9.35531 17.0561 9.34315 17.0648L9.32885 17.0749L9.32469 17.0779L9.32337 17.0788L9.32291 17.0791C9.32273 17.0792 9.32257 17.0793 9 16.6185ZM9 16.6185L9.32291 17.0791C9.12923 17.2147 8.87077 17.2147 8.67709 17.0791L9 16.6185Z" fill="#424242"/>
</svg>
