<svg width="18" height="19" viewBox="0 0 18 19" fill="none" xmlns="http://www.w3.org/2000/svg">
<path fill-rule="evenodd" clip-rule="evenodd" d="M6.58519 11.7591C6.80486 11.9788 6.80486 12.3349 6.58519 12.5546L3.77269 15.3671C3.55302 15.5868 3.19686 15.5868 2.97719 15.3671C2.75752 15.1474 2.75752 14.7913 2.97719 14.5716L5.78969 11.7591C6.00936 11.5394 6.36552 11.5394 6.58519 11.7591Z" fill="#424242"/>
<path fill-rule="evenodd" clip-rule="evenodd" d="M10.8155 1.78956C10.9531 1.73194 11.1008 1.70227 11.25 1.70227C11.3991 1.70227 11.5468 1.73194 11.6845 1.78956C11.8213 1.84684 11.9454 1.93061 12.0497 2.03603L16.3082 6.29456C16.4136 6.39886 16.4974 6.52299 16.5547 6.6598C16.6123 6.79741 16.642 6.94511 16.642 7.0943C16.642 7.24349 16.6123 7.39118 16.5547 7.52879C16.4974 7.66559 16.4137 7.78971 16.3082 7.89401L12.1988 12.0035C12.8557 13.794 11.8329 15.4782 11.2701 16.2221C11.1729 16.3512 11.049 16.4578 10.9069 16.5347C10.7645 16.6118 10.6072 16.6572 10.4457 16.6679C10.2841 16.6786 10.1222 16.6542 9.97091 16.5966C9.82053 16.5393 9.6842 16.4504 9.57111 16.3359L1.99456 8.75938L1.99357 8.7584C1.88177 8.64729 1.79457 8.51392 1.73762 8.36693C1.6805 8.21951 1.65509 8.06171 1.66305 7.90382C1.67101 7.74592 1.71216 7.59148 1.78382 7.45055C1.85548 7.30963 1.95603 7.18539 2.07893 7.08594C3.24241 6.14576 4.39084 5.93461 5.25894 5.97337C5.68805 5.99253 6.04358 6.07218 6.29498 6.14841C6.30611 6.15178 6.31703 6.15515 6.32776 6.15851L10.4502 2.03608C10.5545 1.93064 10.6786 1.84685 10.8155 1.78956ZM15.5139 7.09126L11.25 2.82728L11.2469 2.83034L6.86646 7.2108C6.69592 7.38134 6.43575 7.42409 6.21973 7.31744L6.21269 7.31417C6.20448 7.31042 6.1895 7.30377 6.16817 7.29505C6.12546 7.2776 6.05778 7.25206 5.96854 7.225C5.7895 7.17072 5.5276 7.11149 5.20876 7.09725C4.58103 7.06922 3.71131 7.21336 2.78662 7.96047L2.78834 7.96217L10.3715 15.5453L10.3725 15.5439C10.9514 14.7789 11.677 13.4192 11.0285 12.128C10.9197 11.9113 10.962 11.6493 11.1335 11.4778L15.517 7.09429L15.5139 7.09126Z" fill="#424242"/>
</svg>
