<svg width="32" height="32" viewBox="0 0 32 32" fill="none" xmlns="http://www.w3.org/2000/svg">
<path fill-rule="evenodd" clip-rule="evenodd" d="M28.4142 24.4142C28.0391 24.7893 27.5304 25 27 25L19.5 25C18.9696 25 18.4609 24.7893 18.0858 24.4142C17.7107 24.0391 17.5 23.5304 17.5 23L17.5 12C17.5 10.4087 18.1321 8.88258 19.2574 7.75736C20.3826 6.63214 21.9087 6 23.5 6C24.0523 6 24.5 6.44772 24.5 7C24.5 7.55228 24.0523 8 23.5 8C22.4391 8 21.4217 8.42143 20.6716 9.17157C19.9214 9.92172 19.5 10.9391 19.5 12L19.5 13L27 13C27.5304 13 28.0391 13.2107 28.4142 13.5858C28.7893 13.9609 29 14.4696 29 15L29 23C29 23.5304 28.7893 24.0391 28.4142 24.4142ZM19.5 15L19.5 23L27 23L27 15L19.5 15Z" fill="black"/>
<path fill-rule="evenodd" clip-rule="evenodd" d="M13.9142 24.4142C13.5391 24.7893 13.0304 25 12.5 25L5 25C4.46957 25 3.96086 24.7893 3.58578 24.4142C3.21071 24.0391 3 23.5304 3 23L3 12C3 10.4087 3.63214 8.88258 4.75736 7.75736C5.88258 6.63214 7.4087 6 9 6C9.55229 6 10 6.44771 10 7C10 7.55228 9.55229 8 9 8C7.93914 8 6.92172 8.42143 6.17158 9.17157C5.42143 9.92172 5 10.9391 5 12L5 13L12.5 13C13.0304 13 13.5391 13.2107 13.9142 13.5858C14.2893 13.9609 14.5 14.4696 14.5 15L14.5 23C14.5 23.5304 14.2893 24.0391 13.9142 24.4142ZM5 15L5 23L12.5 23L12.5 15L5 15Z" fill="black"/>
</svg>
