<svg width="28" height="28" viewBox="0 0 28 28" fill="none" xmlns="http://www.w3.org/2000/svg">
<path fill-rule="evenodd" clip-rule="evenodd" d="M3.13756 6.63756C3.46575 6.30938 3.91087 6.125 4.375 6.125L10.9375 6.125C11.4016 6.125 11.8467 6.30938 12.1749 6.63756C12.5031 6.96575 12.6875 7.41087 12.6875 7.875L12.6875 17.5C12.6875 18.8924 12.1344 20.2277 11.1498 21.2123C10.1652 22.1969 8.82989 22.75 7.4375 22.75C6.95425 22.75 6.5625 22.3582 6.5625 21.875C6.5625 21.3918 6.95425 21 7.4375 21C8.36576 21 9.256 20.6313 9.91237 19.9749C10.5688 19.3185 10.9375 18.4283 10.9375 17.5V16.625H4.375C3.91087 16.625 3.46575 16.4406 3.13756 16.1124C2.80937 15.7842 2.625 15.3391 2.625 14.875L2.625 7.875C2.625 7.41087 2.80938 6.96575 3.13756 6.63756ZM10.9375 14.875L10.9375 7.875L4.375 7.875L4.375 14.875L10.9375 14.875Z" fill="black"/>
<path fill-rule="evenodd" clip-rule="evenodd" d="M15.8251 6.63756C16.1533 6.30937 16.5984 6.125 17.0625 6.125L23.625 6.125C24.0891 6.125 24.5343 6.30937 24.8624 6.63756C25.1906 6.96575 25.375 7.41087 25.375 7.875V17.5C25.375 18.8924 24.8219 20.2277 23.8373 21.2123C22.8527 22.1969 21.5174 22.75 20.125 22.75C19.6418 22.75 19.25 22.3582 19.25 21.875C19.25 21.3918 19.6418 21 20.125 21C21.0533 21 21.9435 20.6313 22.5999 19.9749C23.2563 19.3185 23.625 18.4283 23.625 17.5V16.625H17.0625C16.5984 16.625 16.1533 16.4406 15.8251 16.1124C15.4969 15.7842 15.3125 15.3391 15.3125 14.875L15.3125 7.875C15.3125 7.41087 15.4969 6.96575 15.8251 6.63756ZM23.625 14.875V7.875L17.0625 7.875V14.875H23.625Z" fill="black"/>
</svg>
